<?xml version="1.0" encoding="utf-8"?>
<!-- Generator: Adobe Illustrator 19.2.1, SVG Export Plug-In . SVG Version: 6.00 Build 0)  -->
<svg version="1.1" id="layer" xmlns="http://www.w3.org/2000/svg" xmlns:xlink="http://www.w3.org/1999/xlink" x="0px" y="0px"
	 viewBox="0 0 652 652" style="enable-background:new 0 0 652 652;" xml:space="preserve">
<style type="text/css">
	.st0{fill:#03A94A;}
	.st1{fill:#040403;}
</style>
<path class="st0" d="M117.1,245.1c-16.2,0.1-31.2,5.5-43.3,14.6c-12.1,9.1-21.3,22-26,36.9c-0.2,0.6-0.5,1.2-0.9,1.7
	c-0.4,0.5-0.8,0.9-1.4,1.3c-7.5,4.9-13.6,11.8-17.8,19.8c-4.2,8.1-6.3,17.3-5.9,27.2c0.7,14.2,7,26.8,16.7,35.7
	c9.7,9,22.7,14.4,36.7,14.3h42.3h42.3c14-0.1,27-5.6,36.6-14.7c9.6-9.1,15.9-21.8,16.5-36c0.4-9.8-1.8-19.1-6-27.1
	c-4.2-8-10.4-14.8-17.9-19.7c-0.5-0.3-1-0.8-1.4-1.3c-0.4-0.5-0.7-1-0.9-1.7c-4.8-14.9-14.1-27.7-26.3-36.7
	C148.3,250.3,133.3,245,117.1,245.1 M117.1,264c12,0,23.3,4,32.6,11c9.2,7,16.3,16.9,19.8,28.5l0.7,2.5l0.7,2.5
	c0.2,0.7,0.5,1.3,0.9,1.8c0.4,0.5,0.9,1,1.5,1.3l2.2,1.3l2.2,1.3c5.4,3.2,9.6,7.7,12.4,13c2.8,5.3,4.3,11.3,4,17.6
	c-0.3,9.2-4.4,17.3-10.6,23.2c-6.2,5.9-14.6,9.4-23.7,9.5l-42.5,0.2L75,377.9c-9,0-17.5-3.5-23.7-9.3c-6.3-5.8-10.4-13.9-10.8-23.1
	c-0.3-6.3,1.1-12.4,3.9-17.7c2.8-5.3,7-9.8,12.3-13.1l2.2-1.4l2.2-1.4c0.6-0.4,1.1-0.8,1.5-1.3c0.4-0.5,0.7-1.1,0.9-1.8l0.7-2.5
	l0.7-2.5c3.4-11.7,10.4-21.6,19.6-28.7C93.8,268.1,105.2,264,117.1,264"/>
<path class="st0" d="M102.7,309.9c0,1.1-0.4,2.1-1.2,2.9c-0.7,0.7-1.7,1.2-2.8,1.2l-4,0l-4,0c-1.1,0-2.1-0.4-2.8-1.2
	c-0.7-0.7-1.2-1.7-1.2-2.8l0-4.1l0-4.1c0-1.1,0.4-2.1,1.2-2.9c0.7-0.7,1.7-1.2,2.8-1.2l4,0l4,0c1.1,0,2.1,0.5,2.8,1.2
	c0.7,0.7,1.2,1.7,1.2,2.8l0,4.1L102.7,309.9z M125.3,309.9c0,1.1-0.4,2.1-1.2,2.9c-0.7,0.7-1.7,1.2-2.8,1.2l-4,0l-4,0
	c-1.1,0-2.1-0.4-2.8-1.2c-0.7-0.7-1.2-1.7-1.2-2.8l0-4.1l0-4.1c0-1.1,0.4-2.1,1.2-2.9c0.7-0.7,1.7-1.2,2.8-1.2l4,0l4,0
	c1.1,0,2.1,0.5,2.8,1.2c0.7,0.7,1.2,1.7,1.2,2.8l0,4.1L125.3,309.9z M147.8,309.9c0,1.1-0.4,2.1-1.2,2.9s-1.7,1.2-2.8,1.2l-4,0l-4,0
	c-1.1,0-2.1-0.4-2.8-1.2c-0.7-0.7-1.2-1.7-1.2-2.8l0-4.1l0-4.1c0-1.1,0.4-2.1,1.2-2.9c0.7-0.7,1.7-1.2,2.8-1.2l4,0l4,0
	c1.1,0,2.1,0.4,2.8,1.1c0.7,0.7,1.2,1.7,1.2,2.8v0v0l0,4.1L147.8,309.9z M102.7,332.9c0,1.1-0.4,2.1-1.2,2.9
	c-0.7,0.7-1.7,1.2-2.8,1.2l-4,0l-4,0c-1.1,0-2.1-0.4-2.8-1.2c-0.7-0.7-1.2-1.7-1.2-2.8l0-4.1l0-4.1c0-1.1,0.4-2.1,1.2-2.9
	c0.7-0.7,1.7-1.2,2.8-1.2l4,0l4,0c1.1,0,2.1,0.5,2.8,1.2c0.7,0.7,1.2,1.7,1.2,2.8l0,4.1L102.7,332.9z M125.3,332.9
	c0,1.1-0.4,2.1-1.2,2.9c-0.7,0.7-1.7,1.2-2.8,1.2l-4,0l-4,0c-1.1,0-2.1-0.4-2.8-1.2c-0.7-0.7-1.2-1.7-1.2-2.8l0-4.1l0-4.1
	c0-1.1,0.4-2.1,1.2-2.9c0.7-0.7,1.7-1.2,2.8-1.2l4,0l4,0c1.1,0,2.1,0.5,2.8,1.2c0.7,0.7,1.2,1.7,1.2,2.8l0,4.1L125.3,332.9z
	 M147.8,332.9c0,1.1-0.4,2.1-1.2,2.9s-1.7,1.2-2.8,1.2l-4,0l-4,0c-1.1,0-2.1-0.4-2.8-1.2c-0.7-0.7-1.2-1.7-1.2-2.8l0-4.1l0-4.1
	c0-1.1,0.4-2.1,1.2-2.9c0.7-0.7,1.7-1.2,2.8-1.2l4,0l4,0c1.1,0,2.1,0.5,2.8,1.2c0.7,0.7,1.2,1.7,1.2,2.8l0,4.1L147.8,332.9z
	 M102.7,355.8c0,1.1-0.4,2.1-1.2,2.9c-0.7,0.7-1.7,1.2-2.8,1.2l-4,0l-4,0c-1.1,0-2.1-0.4-2.8-1.2c-0.7-0.7-1.2-1.7-1.2-2.8l0-4.1
	l0-4.1c0-1.1,0.4-2.1,1.2-2.9c0.7-0.7,1.7-1.2,2.8-1.2l4,0l4,0c1.1,0,2.1,0.4,2.8,1.2c0.7,0.7,1.2,1.7,1.2,2.8l0,4.1L102.7,355.8z
	 M125.3,355.8c0,1.1-0.4,2.1-1.2,2.9c-0.7,0.7-1.7,1.2-2.8,1.2l-4,0l-4,0c-1.1,0-2.1-0.4-2.8-1.2c-0.7-0.7-1.2-1.7-1.2-2.8l0-4.1
	l0-4.1c0-1.1,0.4-2.1,1.2-2.9c0.7-0.7,1.7-1.2,2.8-1.2l4,0l4,0c1.1,0,2.1,0.4,2.8,1.2c0.7,0.7,1.2,1.7,1.2,2.8l0,4.1L125.3,355.8z
	 M147.9,355.8c0,1.1-0.4,2.1-1.2,2.9c-0.7,0.7-1.7,1.2-2.8,1.2l-4,0l-4,0c-1.1,0-2.1-0.4-2.8-1.2c-0.7-0.7-1.2-1.7-1.2-2.8l0-4.1
	l0-4.1c0-1.1,0.4-2.1,1.2-2.9c0.7-0.7,1.7-1.2,2.8-1.2l4,0l4,0c1.1,0,2.1,0.4,2.8,1.2c0.7,0.7,1.2,1.7,1.2,2.8l0,4.1L147.9,355.8z"
	/>
<path class="st1" d="M306.3,337.4c1.6-1.8,2.8-3.9,3.6-6.3c0.8-2.4,1.2-5.2,1.2-8.3c0-3.1-0.4-5.9-1.2-8.3c-0.8-2.4-2-4.5-3.7-6.3
	c-1.6-1.8-3.5-3.1-5.5-4c-2.1-0.9-4.4-1.3-6.9-1.3c-2.5,0-4.8,0.5-6.9,1.4c-2.1,0.9-3.9,2.2-5.5,4c-1.6,1.8-2.8,3.9-3.6,6.3
	c-0.8,2.4-1.2,5.2-1.2,8.3c0,3.1,0.4,5.8,1.2,8.3c0.8,2.4,2,4.5,3.7,6.3c1.6,1.8,3.5,3.1,5.6,4c2.1,0.9,4.4,1.3,6.9,1.3
	c2.5,0,4.8-0.5,6.9-1.4C302.9,340.6,304.7,339.2,306.3,337.4 M316.8,284.9c3.1,1.8,5.8,3.9,8.3,6.4c2.4,2.5,4.5,5.4,6.4,8.7
	c1.8,3.3,3.2,6.8,4.1,10.6c0.9,3.8,1.4,7.9,1.4,12.2c0,4.3-0.4,8.4-1.3,12.2c-0.9,3.8-2.2,7.3-4,10.6c-1.8,3.3-3.9,6.2-6.3,8.7
	c-2.4,2.5-5.2,4.7-8.2,6.5c-3.1,1.8-6.3,3.1-9.7,4c-3.4,0.9-7,1.3-10.7,1.4c-4.8,0-9.1-0.7-12.9-2.2c-3.8-1.4-7.1-3.6-9.9-6.6
	l0,16.8V391c0,1.5-0.6,2.9-1.6,3.9c-1,1-2.3,1.6-3.8,1.6l-9,0l-9,0c-1.5,0-2.8-0.6-3.8-1.6c-1-1-1.6-2.4-1.6-3.9l-0.1-52.5
	l-0.1-52.5c0-1.5,0.6-2.9,1.6-3.9c1-1,2.3-1.6,3.8-1.6l8.3,0l8.3,0c1.5,0,2.8,0.6,3.8,1.6c1,1,1.6,2.4,1.6,3.9l0,1.7l0,1.7
	c2.7-3.2,6-5.7,10.1-7.3c4-1.6,8.8-2.5,14.2-2.5c3.7,0,7.3,0.4,10.7,1.3C310.5,281.8,313.8,283.1,316.8,284.9 M355.4,251.5l9,0l9,0
	c1.5,0,2.8,0.6,3.8,1.6c1,1,1.6,2.4,1.6,3.9v51.8v51.8c0,1.5-0.6,2.9-1.6,3.9c-1,1-2.3,1.6-3.8,1.6l-9,0l-9,0
	c-1.5,0-2.8-0.6-3.8-1.6c-1-1-1.6-2.4-1.6-3.9v-51.8l0-51.8c0-1.5,0.6-2.9,1.6-3.9C352.5,252.1,353.9,251.5,355.4,251.5
	 M525.8,289.7l-7.3,18.2l-7.3,18.3l-7.3,18.3l-7.3,18.3c-0.2,0.5-0.5,1-0.8,1.4c-0.3,0.4-0.7,0.8-1.2,1.1c-0.4,0.3-0.9,0.5-1.4,0.7
	c-0.5,0.2-1,0.2-1.6,0.2h-5.6h-5.6l-5.6,0h-5.6c-0.5,0-1.1-0.1-1.6-0.2c-0.5-0.2-1-0.4-1.4-0.7c-0.4-0.3-0.8-0.7-1.2-1.1
	c-0.3-0.4-0.6-0.9-0.8-1.4l-7.4-18.2l-7.3-18.2l-7.4-18.2l-7.3-18.2c-0.4-0.9-0.5-1.8-0.4-2.7c0.1-0.9,0.4-1.7,0.9-2.4
	c0.5-0.7,1.1-1.3,1.9-1.8s1.6-0.7,2.6-0.7l4.5,0l4.5,0l4.5,0l4.5,0c0.6,0,1.1,0.1,1.6,0.2c0.5,0.2,1,0.4,1.4,0.7
	c0.4,0.3,0.8,0.7,1.2,1.1c0.3,0.4,0.6,0.9,0.8,1.4l4.6,11.9l4.6,11.9l4.6,11.9l4.6,11.9l4.8-11.9l4.8-11.9l4.8-11.9l4.8-11.9
	c0.2-0.5,0.5-1,0.8-1.4c0.3-0.4,0.7-0.8,1.2-1.1c0.4-0.3,0.9-0.5,1.4-0.7c0.5-0.2,1-0.3,1.6-0.3l3.9,0l3.9,0l3.9,0l3.9,0
	c1,0,1.8,0.2,2.6,0.7c0.8,0.4,1.4,1,1.9,1.7c0.5,0.7,0.8,1.6,0.9,2.4C526.3,287.8,526.1,288.8,525.8,289.7 M588,336.4
	c1.6-1.8,2.8-3.9,3.6-6.4c0.8-2.5,1.2-5.3,1.2-8.4c0-3.1-0.4-5.8-1.2-8.3c-0.8-2.4-2-4.5-3.7-6.2c-1.6-1.7-3.5-3-5.5-3.9
	c-2.1-0.9-4.4-1.3-6.9-1.3c-2.5,0-4.8,0.5-6.9,1.3c-2.1,0.9-3.9,2.2-5.5,4c-1.6,1.8-2.8,3.8-3.6,6.3c-0.8,2.4-1.2,5.2-1.2,8.3
	c0,3.1,0.4,5.9,1.2,8.4c0.8,2.5,2,4.6,3.7,6.3c1.6,1.8,3.5,3.1,5.6,4c2.1,0.9,4.4,1.3,6.9,1.3c2.5,0,4.8-0.5,6.9-1.4
	C584.5,339.5,586.4,338.2,588,336.4 M551.8,359.6c-3.5-1.8-6.7-4-9.5-6.6c-2.8-2.6-5.2-5.5-7.2-8.8c-2-3.3-3.5-6.8-4.5-10.5
	c-1-3.7-1.5-7.7-1.5-11.8c0-4.1,0.5-8,1.5-11.7c1-3.7,2.5-7.2,4.5-10.5c2-3.3,4.4-6.2,7.1-8.8c2.7-2.6,5.9-4.8,9.4-6.6
	c3.5-1.8,7.2-3.2,11.2-4.1c4-0.9,8.2-1.4,12.6-1.4c4.4,0,8.7,0.4,12.7,1.3c4,0.9,7.8,2.3,11.3,4.1c3.5,1.8,6.7,4,9.5,6.5
	c2.8,2.5,5.1,5.4,7.1,8.7c2,3.3,3.5,6.7,4.5,10.5c1,3.7,1.5,7.7,1.5,11.8c0,4.2-0.5,8.1-1.4,11.9c-1,3.7-2.4,7.3-4.4,10.6
	c-2,3.3-4.3,6.2-7.1,8.8c-2.7,2.6-5.9,4.8-9.4,6.7c-3.5,1.9-7.3,3.3-11.3,4.2c-4,0.9-8.2,1.4-12.7,1.4c-4.4,0-8.6-0.4-12.5-1.3
	C559.1,362.9,555.4,361.5,551.8,359.6 M419.3,276.1h-8.9h-8.9c-1.5,0-2.9-0.6-3.9-1.6c-1-1-1.6-2.4-1.6-4v-6.7v-6.7
	c0-1.5,0.6-2.9,1.6-4c1-1,2.4-1.6,3.9-1.6h8.9h8.9c1.5,0,2.9,0.6,3.9,1.6c1,1,1.6,2.4,1.6,4v6.7v6.7c0,1.5-0.6,2.9-1.6,4
	C422.2,275.5,420.8,276.1,419.3,276.1 M419.3,366.1h-8.9h-8.9c-1.5,0-2.9-0.6-3.9-1.6c-1-1-1.6-2.4-1.6-4v-36.4v-36.4
	c0-1.5,0.6-2.9,1.6-4c1-1,2.4-1.6,3.9-1.6h8.9h8.9c1.5,0,2.9,0.6,3.9,1.6c1,1,1.6,2.4,1.6,4v36.4v36.4c0,1.6-0.6,2.9-1.6,4
	C422.2,365.5,420.8,366.1,419.3,366.1"/>
</svg>
